<mxfile host="65bd71144e" scale="0.75" border="0">
    <diagram id="w224CvQQ3n1-JPQmzMyT" name="Infraestructura">
        <mxGraphModel dx="1240" dy="716" grid="1" gridSize="10" guides="1" tooltips="1" connect="1" arrows="1" fold="1" page="1" pageScale="1" pageWidth="1100" pageHeight="850" math="0" shadow="0">
            <root>
                <mxCell id="0"/>
                <mxCell id="1" parent="0"/>
                <mxCell id="93" value="AWS Cloud" style="sketch=0;outlineConnect=0;gradientColor=none;html=1;whiteSpace=wrap;fontSize=12;fontStyle=0;shape=mxgraph.aws4.group;grIcon=mxgraph.aws4.group_aws_cloud;strokeColor=#AAB7B8;fillColor=none;verticalAlign=top;align=left;spacingLeft=30;fontColor=#AAB7B8;dashed=0;" vertex="1" parent="1">
                    <mxGeometry x="170" width="930" height="780" as="geometry"/>
                </mxCell>
                <mxCell id="57" value="" style="shape=cylinder3;whiteSpace=wrap;html=1;boundedLbl=1;backgroundOutline=1;size=15;" vertex="1" parent="1">
                    <mxGeometry x="820" y="155" width="220" height="324.75" as="geometry"/>
                </mxCell>
                <mxCell id="10" style="edgeStyle=none;html=1;" edge="1" parent="1" source="3" target="8">
                    <mxGeometry relative="1" as="geometry">
                        <Array as="points">
                            <mxPoint x="330" y="260"/>
                        </Array>
                    </mxGeometry>
                </mxCell>
                <mxCell id="22" style="edgeStyle=none;html=1;" edge="1" parent="1" source="3">
                    <mxGeometry relative="1" as="geometry">
                        <mxPoint x="230" y="328.5" as="targetPoint"/>
                    </mxGeometry>
                </mxCell>
                <mxCell id="25" style="edgeStyle=none;html=1;" edge="1" parent="1" source="3" target="14">
                    <mxGeometry relative="1" as="geometry">
                        <Array as="points">
                            <mxPoint x="440" y="329"/>
                        </Array>
                    </mxGeometry>
                </mxCell>
                <mxCell id="3" value="Amazon API Gateway" style="sketch=0;outlineConnect=0;fontColor=#232F3E;gradientColor=none;strokeColor=#ffffff;fillColor=#232F3E;dashed=0;verticalLabelPosition=middle;verticalAlign=bottom;align=center;html=1;whiteSpace=wrap;fontSize=10;fontStyle=1;spacing=3;shape=mxgraph.aws4.productIcon;prIcon=mxgraph.aws4.api_gateway;" vertex="1" parent="1">
                    <mxGeometry x="200" y="285.25" width="60" height="86.5" as="geometry"/>
                </mxCell>
                <mxCell id="5" style="edgeStyle=none;html=1;" edge="1" parent="1" source="4" target="3">
                    <mxGeometry relative="1" as="geometry"/>
                </mxCell>
                <mxCell id="6" value="" style="sketch=0;points=[[0,0,0],[0.25,0,0],[0.5,0,0],[0.75,0,0],[1,0,0],[0,1,0],[0.25,1,0],[0.5,1,0],[0.75,1,0],[1,1,0],[0,0.25,0],[0,0.5,0],[0,0.75,0],[1,0.25,0],[1,0.5,0],[1,0.75,0]];outlineConnect=0;fontColor=#232F3E;gradientColor=#F54749;gradientDirection=north;fillColor=#C7131F;strokeColor=#ffffff;dashed=0;verticalLabelPosition=bottom;verticalAlign=top;align=center;html=1;fontSize=12;fontStyle=0;aspect=fixed;shape=mxgraph.aws4.resourceIcon;resIcon=mxgraph.aws4.waf;" vertex="1" parent="1">
                    <mxGeometry x="200" y="180" width="60" height="60" as="geometry"/>
                </mxCell>
                <mxCell id="32" style="edgeStyle=none;html=1;" edge="1" parent="1" source="8" target="31">
                    <mxGeometry relative="1" as="geometry"/>
                </mxCell>
                <mxCell id="8" value="" style="outlineConnect=0;dashed=0;verticalLabelPosition=bottom;verticalAlign=top;align=center;html=1;shape=mxgraph.aws3.lambda_function;fillColor=#F58534;gradientColor=none;" vertex="1" parent="1">
                    <mxGeometry x="310" y="115" width="40" height="40" as="geometry"/>
                </mxCell>
                <mxCell id="9" value="Autorizador" style="text;html=1;align=center;verticalAlign=middle;resizable=0;points=[];autosize=1;strokeColor=none;fillColor=none;" vertex="1" parent="1">
                    <mxGeometry x="300" y="90" width="80" height="20" as="geometry"/>
                </mxCell>
                <mxCell id="87" style="edgeStyle=none;html=1;entryX=0.5;entryY=0;entryDx=0;entryDy=0;" edge="1" parent="1" source="14" target="79">
                    <mxGeometry relative="1" as="geometry"/>
                </mxCell>
                <mxCell id="89" style="edgeStyle=none;html=1;" edge="1" parent="1" source="14" target="88">
                    <mxGeometry relative="1" as="geometry">
                        <Array as="points">
                            <mxPoint x="665" y="77"/>
                        </Array>
                    </mxGeometry>
                </mxCell>
                <mxCell id="14" value="Auto Scaling group" style="points=[[0,0],[0.25,0],[0.5,0],[0.75,0],[1,0],[1,0.25],[1,0.5],[1,0.75],[1,1],[0.75,1],[0.5,1],[0.25,1],[0,1],[0,0.75],[0,0.5],[0,0.25]];outlineConnect=0;gradientColor=none;html=1;whiteSpace=wrap;fontSize=12;fontStyle=0;container=1;pointerEvents=0;collapsible=0;recursiveResize=0;shape=mxgraph.aws4.groupCenter;grIcon=mxgraph.aws4.group_auto_scaling_group;grStroke=1;strokeColor=#D86613;fillColor=none;verticalAlign=top;align=center;fontColor=#D86613;dashed=1;spacingTop=25;" vertex="1" parent="1">
                    <mxGeometry x="600" y="138.5" width="130" height="371.5" as="geometry"/>
                </mxCell>
                <mxCell id="16" value="" style="sketch=0;points=[[0,0,0],[0.25,0,0],[0.5,0,0],[0.75,0,0],[1,0,0],[0,1,0],[0.25,1,0],[0.5,1,0],[0.75,1,0],[1,1,0],[0,0.25,0],[0,0.5,0],[0,0.75,0],[1,0.25,0],[1,0.5,0],[1,0.75,0]];outlineConnect=0;fontColor=#232F3E;gradientColor=#F78E04;gradientDirection=north;fillColor=#D05C17;strokeColor=#ffffff;dashed=0;verticalLabelPosition=bottom;verticalAlign=top;align=center;html=1;fontSize=12;fontStyle=0;aspect=fixed;shape=mxgraph.aws4.resourceIcon;resIcon=mxgraph.aws4.ecs;" vertex="1" parent="14">
                    <mxGeometry x="40" y="80" width="40" height="40" as="geometry"/>
                </mxCell>
                <mxCell id="18" value="" style="sketch=0;points=[[0,0,0],[0.25,0,0],[0.5,0,0],[0.75,0,0],[1,0,0],[0,1,0],[0.25,1,0],[0.5,1,0],[0.75,1,0],[1,1,0],[0,0.25,0],[0,0.5,0],[0,0.75,0],[1,0.25,0],[1,0.5,0],[1,0.75,0]];outlineConnect=0;fontColor=#232F3E;gradientColor=#F78E04;gradientDirection=north;fillColor=#D05C17;strokeColor=#ffffff;dashed=0;verticalLabelPosition=bottom;verticalAlign=top;align=center;html=1;fontSize=12;fontStyle=0;aspect=fixed;shape=mxgraph.aws4.resourceIcon;resIcon=mxgraph.aws4.ecs;" vertex="1" parent="14">
                    <mxGeometry x="40" y="280" width="40" height="40" as="geometry"/>
                </mxCell>
                <mxCell id="17" value="" style="sketch=0;points=[[0,0,0],[0.25,0,0],[0.5,0,0],[0.75,0,0],[1,0,0],[0,1,0],[0.25,1,0],[0.5,1,0],[0.75,1,0],[1,1,0],[0,0.25,0],[0,0.5,0],[0,0.75,0],[1,0.25,0],[1,0.5,0],[1,0.75,0]];outlineConnect=0;fontColor=#232F3E;gradientColor=#F78E04;gradientDirection=north;fillColor=#D05C17;strokeColor=#ffffff;dashed=0;verticalLabelPosition=bottom;verticalAlign=top;align=center;html=1;fontSize=12;fontStyle=0;aspect=fixed;shape=mxgraph.aws4.resourceIcon;resIcon=mxgraph.aws4.ecs;" vertex="1" parent="14">
                    <mxGeometry x="40" y="180" width="40" height="40" as="geometry"/>
                </mxCell>
                <mxCell id="19" value="Productos" style="text;html=1;strokeColor=none;fillColor=none;align=center;verticalAlign=middle;whiteSpace=wrap;rounded=0;" vertex="1" parent="14">
                    <mxGeometry x="30" y="110" width="60" height="30" as="geometry"/>
                </mxCell>
                <mxCell id="20" value="Usuarios" style="text;html=1;strokeColor=none;fillColor=none;align=center;verticalAlign=middle;whiteSpace=wrap;rounded=0;" vertex="1" parent="14">
                    <mxGeometry x="30" y="210" width="60" height="30" as="geometry"/>
                </mxCell>
                <mxCell id="21" value="Pedidos" style="text;html=1;strokeColor=none;fillColor=none;align=center;verticalAlign=middle;whiteSpace=wrap;rounded=0;" vertex="1" parent="14">
                    <mxGeometry x="30" y="315" width="60" height="30" as="geometry"/>
                </mxCell>
                <mxCell id="31" value="Amazon Cognito" style="sketch=0;outlineConnect=0;fontColor=#232F3E;gradientColor=none;strokeColor=#ffffff;fillColor=#232F3E;dashed=0;verticalLabelPosition=middle;verticalAlign=bottom;align=center;html=1;whiteSpace=wrap;fontSize=10;fontStyle=1;spacing=3;shape=mxgraph.aws4.productIcon;prIcon=mxgraph.aws4.cognito;" vertex="1" parent="1">
                    <mxGeometry x="400" y="84.25" width="70" height="101.5" as="geometry"/>
                </mxCell>
                <mxCell id="44" value="" style="group" vertex="1" connectable="0" parent="1">
                    <mxGeometry x="20" y="253.38" width="120" height="143.25" as="geometry"/>
                </mxCell>
                <mxCell id="43" value="" style="rounded=1;whiteSpace=wrap;html=1;" vertex="1" parent="44">
                    <mxGeometry width="120" height="143.25" as="geometry"/>
                </mxCell>
                <mxCell id="2" value="" style="aspect=fixed;perimeter=ellipsePerimeter;html=1;align=center;shadow=0;dashed=0;spacingTop=3;image;image=img/lib/active_directory/user.svg;" vertex="1" parent="44">
                    <mxGeometry x="30" y="46.620000000000005" width="18.5" height="50" as="geometry"/>
                </mxCell>
                <mxCell id="4" value="" style="outlineConnect=0;dashed=0;verticalLabelPosition=bottom;verticalAlign=top;align=center;html=1;shape=mxgraph.aws3.mobile_client;fillColor=#D2D3D3;gradientColor=none;" vertex="1" parent="44">
                    <mxGeometry x="60" y="43.620000000000005" width="40.5" height="63" as="geometry"/>
                </mxCell>
                <mxCell id="42" value="Cliente" style="text;html=1;strokeColor=none;fillColor=none;align=center;verticalAlign=middle;whiteSpace=wrap;rounded=0;" vertex="1" parent="44">
                    <mxGeometry x="30" y="8.370000000000005" width="60" height="30" as="geometry"/>
                </mxCell>
                <mxCell id="48" value="" style="group" vertex="1" connectable="0" parent="1">
                    <mxGeometry x="20" y="450" width="120" height="135" as="geometry"/>
                </mxCell>
                <mxCell id="46" value="" style="rounded=1;whiteSpace=wrap;html=1;" vertex="1" parent="48">
                    <mxGeometry width="120" height="135" as="geometry"/>
                </mxCell>
                <mxCell id="47" value="" style="group" vertex="1" connectable="0" parent="48">
                    <mxGeometry x="20.25" y="15" width="79.5" height="90" as="geometry"/>
                </mxCell>
                <mxCell id="37" value="" style="fontColor=#0066CC;verticalAlign=top;verticalLabelPosition=bottom;labelPosition=center;align=center;html=1;outlineConnect=0;fillColor=#CCCCCC;strokeColor=#6881B3;gradientColor=none;gradientDirection=north;strokeWidth=2;shape=mxgraph.networks.pc;" vertex="1" parent="47">
                    <mxGeometry x="30" y="40" width="49.5" height="50" as="geometry"/>
                </mxCell>
                <mxCell id="41" value="" style="aspect=fixed;perimeter=ellipsePerimeter;html=1;align=center;shadow=0;dashed=0;spacingTop=3;image;image=img/lib/active_directory/user.svg;" vertex="1" parent="47">
                    <mxGeometry y="40" width="18.5" height="50" as="geometry"/>
                </mxCell>
                <mxCell id="45" value="Comercio" style="text;html=1;strokeColor=none;fillColor=none;align=center;verticalAlign=middle;whiteSpace=wrap;rounded=0;" vertex="1" parent="47">
                    <mxGeometry x="9.75" width="60" height="30" as="geometry"/>
                </mxCell>
                <mxCell id="53" style="edgeStyle=none;html=1;entryX=0.5;entryY=1;entryDx=0;entryDy=0;entryPerimeter=0;" edge="1" parent="1" source="49" target="8">
                    <mxGeometry relative="1" as="geometry">
                        <Array as="points">
                            <mxPoint x="330" y="533"/>
                        </Array>
                    </mxGeometry>
                </mxCell>
                <mxCell id="54" style="edgeStyle=none;html=1;" edge="1" parent="1" source="49" target="14">
                    <mxGeometry relative="1" as="geometry"/>
                </mxCell>
                <mxCell id="86" style="edgeStyle=none;html=1;entryX=0;entryY=0.5;entryDx=0;entryDy=0;entryPerimeter=0;startArrow=none;" edge="1" parent="1" source="90" target="76">
                    <mxGeometry relative="1" as="geometry">
                        <Array as="points">
                            <mxPoint x="399" y="700"/>
                        </Array>
                    </mxGeometry>
                </mxCell>
                <mxCell id="49" value="Amazon API Gateway" style="sketch=0;outlineConnect=0;fontColor=#232F3E;gradientColor=none;strokeColor=#ffffff;fillColor=#232F3E;dashed=0;verticalLabelPosition=middle;verticalAlign=bottom;align=center;html=1;whiteSpace=wrap;fontSize=10;fontStyle=1;spacing=3;shape=mxgraph.aws4.productIcon;prIcon=mxgraph.aws4.api_gateway;" vertex="1" parent="1">
                    <mxGeometry x="200" y="490" width="60" height="86.5" as="geometry"/>
                </mxCell>
                <mxCell id="50" style="edgeStyle=none;html=1;" edge="1" parent="1" source="37" target="49">
                    <mxGeometry relative="1" as="geometry">
                        <mxPoint x="160" y="525" as="targetPoint"/>
                    </mxGeometry>
                </mxCell>
                <mxCell id="55" value="Amazon DynamoDB" style="sketch=0;outlineConnect=0;fontColor=#232F3E;gradientColor=none;strokeColor=#ffffff;fillColor=#232F3E;dashed=0;verticalLabelPosition=middle;verticalAlign=bottom;align=center;html=1;whiteSpace=wrap;fontSize=10;fontStyle=1;spacing=3;shape=mxgraph.aws4.productIcon;prIcon=mxgraph.aws4.dynamodb;" vertex="1" parent="1">
                    <mxGeometry x="900" y="267.37" width="67.5" height="100" as="geometry"/>
                </mxCell>
                <mxCell id="58" value="Data Bases" style="text;html=1;strokeColor=none;fillColor=none;align=center;verticalAlign=middle;whiteSpace=wrap;rounded=0;" vertex="1" parent="1">
                    <mxGeometry x="900" y="195" width="60" height="30" as="geometry"/>
                </mxCell>
                <mxCell id="60" style="edgeStyle=none;html=1;" edge="1" parent="1" source="16" target="57">
                    <mxGeometry relative="1" as="geometry"/>
                </mxCell>
                <mxCell id="62" style="edgeStyle=none;html=1;" edge="1" parent="1" source="17" target="57">
                    <mxGeometry relative="1" as="geometry"/>
                </mxCell>
                <mxCell id="63" style="edgeStyle=none;html=1;" edge="1" parent="1" source="18" target="57">
                    <mxGeometry relative="1" as="geometry"/>
                </mxCell>
                <mxCell id="67" value="" style="verticalLabelPosition=bottom;sketch=0;aspect=fixed;html=1;verticalAlign=top;strokeColor=none;align=center;outlineConnect=0;shape=mxgraph.citrix.role_secure_access;fillColor=#CCCCCC;gradientColor=#000000;gradientDirection=south;" vertex="1" parent="1">
                    <mxGeometry x="432" y="309.5" width="38" height="38" as="geometry"/>
                </mxCell>
                <mxCell id="68" value="" style="verticalLabelPosition=bottom;sketch=0;aspect=fixed;html=1;verticalAlign=top;strokeColor=none;align=center;outlineConnect=0;shape=mxgraph.citrix.role_secure_access;fillColor=#CCCCCC;gradientColor=#000000;gradientDirection=south;" vertex="1" parent="1">
                    <mxGeometry x="432" y="412" width="38" height="38" as="geometry"/>
                </mxCell>
                <mxCell id="83" style="edgeStyle=none;html=1;entryX=1;entryY=0.5;entryDx=0;entryDy=0;entryPerimeter=0;" edge="1" parent="1" source="70" target="76">
                    <mxGeometry relative="1" as="geometry"/>
                </mxCell>
                <mxCell id="70" value="Amazon Elasticsearch Service" style="sketch=0;outlineConnect=0;fontColor=#232F3E;gradientColor=none;strokeColor=#ffffff;fillColor=#232F3E;dashed=0;verticalLabelPosition=middle;verticalAlign=bottom;align=center;html=1;whiteSpace=wrap;fontSize=10;fontStyle=1;spacing=3;shape=mxgraph.aws4.productIcon;prIcon=mxgraph.aws4.elasticsearch_service;" vertex="1" parent="1">
                    <mxGeometry x="880" y="620" width="80" height="120" as="geometry"/>
                </mxCell>
                <mxCell id="82" style="edgeStyle=none;html=1;" edge="1" parent="1" source="76" target="70">
                    <mxGeometry relative="1" as="geometry"/>
                </mxCell>
                <mxCell id="79" value="Report events&lt;br&gt;" style="text;html=1;strokeColor=none;fillColor=none;align=center;verticalAlign=middle;whiteSpace=wrap;rounded=0;" vertex="1" parent="1">
                    <mxGeometry x="635" y="548" width="60" height="30" as="geometry"/>
                </mxCell>
                <mxCell id="81" style="edgeStyle=none;html=1;" edge="1" parent="1" source="80" target="70">
                    <mxGeometry relative="1" as="geometry"/>
                </mxCell>
                <mxCell id="80" value="" style="outlineConnect=0;dashed=0;verticalLabelPosition=bottom;verticalAlign=top;align=center;html=1;shape=mxgraph.aws3.lambda_function;fillColor=#F58534;gradientColor=none;" vertex="1" parent="1">
                    <mxGeometry x="645" y="578" width="39" height="42" as="geometry"/>
                </mxCell>
                <mxCell id="90" value="" style="verticalLabelPosition=bottom;sketch=0;aspect=fixed;html=1;verticalAlign=top;strokeColor=none;align=center;outlineConnect=0;shape=mxgraph.citrix.role_secure_access;fillColor=#CCCCCC;gradientColor=#000000;gradientDirection=south;" vertex="1" parent="1">
                    <mxGeometry x="380" y="600" width="38" height="38" as="geometry"/>
                </mxCell>
                <mxCell id="91" value="" style="edgeStyle=none;html=1;entryX=0;entryY=0.5;entryDx=0;entryDy=0;entryPerimeter=0;endArrow=none;" edge="1" parent="1" source="49" target="90">
                    <mxGeometry relative="1" as="geometry">
                        <mxPoint x="260" y="548.4310344827586" as="sourcePoint"/>
                        <mxPoint x="520" y="680" as="targetPoint"/>
                    </mxGeometry>
                </mxCell>
                <mxCell id="92" value="VPC" style="points=[[0,0],[0.25,0],[0.5,0],[0.75,0],[1,0],[1,0.25],[1,0.5],[1,0.75],[1,1],[0.75,1],[0.5,1],[0.25,1],[0,1],[0,0.75],[0,0.5],[0,0.25]];outlineConnect=0;gradientColor=none;html=1;whiteSpace=wrap;fontSize=12;fontStyle=0;container=1;pointerEvents=0;collapsible=0;recursiveResize=0;shape=mxgraph.aws4.group;grIcon=mxgraph.aws4.group_vpc;strokeColor=#248814;fillColor=none;verticalAlign=top;align=left;spacingLeft=30;fontColor=#AAB7B8;dashed=0;" vertex="1" parent="1">
                    <mxGeometry x="230" y="30" width="850" height="730" as="geometry"/>
                </mxCell>
                <mxCell id="76" value="" style="sketch=0;points=[[0,0,0],[0.25,0,0],[0.5,0,0],[0.75,0,0],[1,0,0],[0,1,0],[0.25,1,0],[0.5,1,0],[0.75,1,0],[1,1,0],[0,0.25,0],[0,0.5,0],[0,0.75,0],[1,0.25,0],[1,0.5,0],[1,0.75,0]];outlineConnect=0;fontColor=#232F3E;gradientColor=#F78E04;gradientDirection=north;fillColor=#D05C17;strokeColor=#ffffff;dashed=0;verticalLabelPosition=bottom;verticalAlign=top;align=center;html=1;fontSize=12;fontStyle=0;aspect=fixed;shape=mxgraph.aws4.resourceIcon;resIcon=mxgraph.aws4.ecs;" vertex="1" parent="92">
                    <mxGeometry x="420" y="650" width="40" height="40" as="geometry"/>
                </mxCell>
                <mxCell id="88" value="Amazon CloudWatch" style="sketch=0;outlineConnect=0;fontColor=#232F3E;gradientColor=none;strokeColor=#ffffff;fillColor=#232F3E;dashed=0;verticalLabelPosition=middle;verticalAlign=bottom;align=center;html=1;whiteSpace=wrap;fontSize=10;fontStyle=1;spacing=3;shape=mxgraph.aws4.productIcon;prIcon=mxgraph.aws4.cloudwatch;" vertex="1" parent="92">
                    <mxGeometry x="670" y="14.25" width="60" height="94.25" as="geometry"/>
                </mxCell>
                <mxCell id="77" value="Analitica" style="text;html=1;strokeColor=none;fillColor=none;align=center;verticalAlign=middle;whiteSpace=wrap;rounded=0;" vertex="1" parent="92">
                    <mxGeometry x="410" y="690" width="60" height="30" as="geometry"/>
                </mxCell>
            </root>
        </mxGraphModel>
    </diagram>
</mxfile>